%TF.GenerationSoftware,KiCad,Pcbnew,9.0.6*%
%TF.CreationDate,2025-12-29T20:59:13-08:00*%
%TF.ProjectId,bodycam,626f6479-6361-46d2-9e6b-696361645f70,rev?*%
%TF.SameCoordinates,Original*%
%TF.FileFunction,Legend,Top*%
%TF.FilePolarity,Positive*%
%FSLAX46Y46*%
G04 Gerber Fmt 4.6, Leading zero omitted, Abs format (unit mm)*
G04 Created by KiCad (PCBNEW 9.0.6) date 2025-12-29 20:59:13*
%MOMM*%
%LPD*%
G01*
G04 APERTURE LIST*
%ADD10C,0.200000*%
%ADD11C,0.100000*%
%ADD12C,0.150000*%
%ADD13C,0.106680*%
%ADD14C,0.040000*%
%ADD15C,0.120000*%
%ADD16C,0.127000*%
%ADD17C,0.504000*%
G04 APERTURE END LIST*
D10*
X233059523Y-123952219D02*
X233059523Y-124666504D01*
X233059523Y-124666504D02*
X233011904Y-124809361D01*
X233011904Y-124809361D02*
X232916666Y-124904600D01*
X232916666Y-124904600D02*
X232773809Y-124952219D01*
X232773809Y-124952219D02*
X232678571Y-124952219D01*
X233964285Y-124952219D02*
X233964285Y-124428409D01*
X233964285Y-124428409D02*
X233916666Y-124333171D01*
X233916666Y-124333171D02*
X233821428Y-124285552D01*
X233821428Y-124285552D02*
X233630952Y-124285552D01*
X233630952Y-124285552D02*
X233535714Y-124333171D01*
X233964285Y-124904600D02*
X233869047Y-124952219D01*
X233869047Y-124952219D02*
X233630952Y-124952219D01*
X233630952Y-124952219D02*
X233535714Y-124904600D01*
X233535714Y-124904600D02*
X233488095Y-124809361D01*
X233488095Y-124809361D02*
X233488095Y-124714123D01*
X233488095Y-124714123D02*
X233535714Y-124618885D01*
X233535714Y-124618885D02*
X233630952Y-124571266D01*
X233630952Y-124571266D02*
X233869047Y-124571266D01*
X233869047Y-124571266D02*
X233964285Y-124523647D01*
X234345238Y-124285552D02*
X234583333Y-124952219D01*
X234821428Y-124285552D02*
X234583333Y-124952219D01*
X234583333Y-124952219D02*
X234488095Y-125190314D01*
X234488095Y-125190314D02*
X234440476Y-125237933D01*
X234440476Y-125237933D02*
X234345238Y-125285552D01*
X235726190Y-123999838D02*
X235630952Y-123952219D01*
X235630952Y-123952219D02*
X235488095Y-123952219D01*
X235488095Y-123952219D02*
X235345238Y-123999838D01*
X235345238Y-123999838D02*
X235250000Y-124095076D01*
X235250000Y-124095076D02*
X235202381Y-124190314D01*
X235202381Y-124190314D02*
X235154762Y-124380790D01*
X235154762Y-124380790D02*
X235154762Y-124523647D01*
X235154762Y-124523647D02*
X235202381Y-124714123D01*
X235202381Y-124714123D02*
X235250000Y-124809361D01*
X235250000Y-124809361D02*
X235345238Y-124904600D01*
X235345238Y-124904600D02*
X235488095Y-124952219D01*
X235488095Y-124952219D02*
X235583333Y-124952219D01*
X235583333Y-124952219D02*
X235726190Y-124904600D01*
X235726190Y-124904600D02*
X235773809Y-124856980D01*
X235773809Y-124856980D02*
X235773809Y-124523647D01*
X235773809Y-124523647D02*
X235583333Y-124523647D01*
D11*
X231535714Y-126290752D02*
X231535714Y-127147895D01*
X231535714Y-127147895D02*
X231488095Y-127243133D01*
X231488095Y-127243133D02*
X231392857Y-127290752D01*
X231392857Y-127290752D02*
X231345238Y-127290752D01*
X231535714Y-125957419D02*
X231488095Y-126005038D01*
X231488095Y-126005038D02*
X231535714Y-126052657D01*
X231535714Y-126052657D02*
X231583333Y-126005038D01*
X231583333Y-126005038D02*
X231535714Y-125957419D01*
X231535714Y-125957419D02*
X231535714Y-126052657D01*
X232440475Y-126957419D02*
X232440475Y-126433609D01*
X232440475Y-126433609D02*
X232392856Y-126338371D01*
X232392856Y-126338371D02*
X232297618Y-126290752D01*
X232297618Y-126290752D02*
X232107142Y-126290752D01*
X232107142Y-126290752D02*
X232011904Y-126338371D01*
X232440475Y-126909800D02*
X232345237Y-126957419D01*
X232345237Y-126957419D02*
X232107142Y-126957419D01*
X232107142Y-126957419D02*
X232011904Y-126909800D01*
X232011904Y-126909800D02*
X231964285Y-126814561D01*
X231964285Y-126814561D02*
X231964285Y-126719323D01*
X231964285Y-126719323D02*
X232011904Y-126624085D01*
X232011904Y-126624085D02*
X232107142Y-126576466D01*
X232107142Y-126576466D02*
X232345237Y-126576466D01*
X232345237Y-126576466D02*
X232440475Y-126528847D01*
X232821428Y-126290752D02*
X233059523Y-126957419D01*
X233297618Y-126290752D02*
X233059523Y-126957419D01*
X233059523Y-126957419D02*
X232964285Y-127195514D01*
X232964285Y-127195514D02*
X232916666Y-127243133D01*
X232916666Y-127243133D02*
X232821428Y-127290752D01*
X234107142Y-126290752D02*
X234107142Y-127100276D01*
X234107142Y-127100276D02*
X234059523Y-127195514D01*
X234059523Y-127195514D02*
X234011904Y-127243133D01*
X234011904Y-127243133D02*
X233916666Y-127290752D01*
X233916666Y-127290752D02*
X233773809Y-127290752D01*
X233773809Y-127290752D02*
X233678571Y-127243133D01*
X234107142Y-126909800D02*
X234011904Y-126957419D01*
X234011904Y-126957419D02*
X233821428Y-126957419D01*
X233821428Y-126957419D02*
X233726190Y-126909800D01*
X233726190Y-126909800D02*
X233678571Y-126862180D01*
X233678571Y-126862180D02*
X233630952Y-126766942D01*
X233630952Y-126766942D02*
X233630952Y-126481228D01*
X233630952Y-126481228D02*
X233678571Y-126385990D01*
X233678571Y-126385990D02*
X233726190Y-126338371D01*
X233726190Y-126338371D02*
X233821428Y-126290752D01*
X233821428Y-126290752D02*
X234011904Y-126290752D01*
X234011904Y-126290752D02*
X234107142Y-126338371D01*
X234583333Y-126862180D02*
X234630952Y-126909800D01*
X234630952Y-126909800D02*
X234583333Y-126957419D01*
X234583333Y-126957419D02*
X234535714Y-126909800D01*
X234535714Y-126909800D02*
X234583333Y-126862180D01*
X234583333Y-126862180D02*
X234583333Y-126957419D01*
X234916666Y-126290752D02*
X235297618Y-126290752D01*
X235059523Y-125957419D02*
X235059523Y-126814561D01*
X235059523Y-126814561D02*
X235107142Y-126909800D01*
X235107142Y-126909800D02*
X235202380Y-126957419D01*
X235202380Y-126957419D02*
X235297618Y-126957419D01*
X235773809Y-126957419D02*
X235678571Y-126909800D01*
X235678571Y-126909800D02*
X235630952Y-126862180D01*
X235630952Y-126862180D02*
X235583333Y-126766942D01*
X235583333Y-126766942D02*
X235583333Y-126481228D01*
X235583333Y-126481228D02*
X235630952Y-126385990D01*
X235630952Y-126385990D02*
X235678571Y-126338371D01*
X235678571Y-126338371D02*
X235773809Y-126290752D01*
X235773809Y-126290752D02*
X235916666Y-126290752D01*
X235916666Y-126290752D02*
X236011904Y-126338371D01*
X236011904Y-126338371D02*
X236059523Y-126385990D01*
X236059523Y-126385990D02*
X236107142Y-126481228D01*
X236107142Y-126481228D02*
X236107142Y-126766942D01*
X236107142Y-126766942D02*
X236059523Y-126862180D01*
X236059523Y-126862180D02*
X236011904Y-126909800D01*
X236011904Y-126909800D02*
X235916666Y-126957419D01*
X235916666Y-126957419D02*
X235773809Y-126957419D01*
X236535714Y-126290752D02*
X236535714Y-127290752D01*
X236535714Y-126338371D02*
X236630952Y-126290752D01*
X236630952Y-126290752D02*
X236821428Y-126290752D01*
X236821428Y-126290752D02*
X236916666Y-126338371D01*
X236916666Y-126338371D02*
X236964285Y-126385990D01*
X236964285Y-126385990D02*
X237011904Y-126481228D01*
X237011904Y-126481228D02*
X237011904Y-126766942D01*
X237011904Y-126766942D02*
X236964285Y-126862180D01*
X236964285Y-126862180D02*
X236916666Y-126909800D01*
X236916666Y-126909800D02*
X236821428Y-126957419D01*
X236821428Y-126957419D02*
X236630952Y-126957419D01*
X236630952Y-126957419D02*
X236535714Y-126909800D01*
D12*
X197604819Y-100981904D02*
X198414342Y-100981904D01*
X198414342Y-100981904D02*
X198509580Y-100934285D01*
X198509580Y-100934285D02*
X198557200Y-100886666D01*
X198557200Y-100886666D02*
X198604819Y-100791428D01*
X198604819Y-100791428D02*
X198604819Y-100600952D01*
X198604819Y-100600952D02*
X198557200Y-100505714D01*
X198557200Y-100505714D02*
X198509580Y-100458095D01*
X198509580Y-100458095D02*
X198414342Y-100410476D01*
X198414342Y-100410476D02*
X197604819Y-100410476D01*
X197604819Y-100029523D02*
X197604819Y-99410476D01*
X197604819Y-99410476D02*
X197985771Y-99743809D01*
X197985771Y-99743809D02*
X197985771Y-99600952D01*
X197985771Y-99600952D02*
X198033390Y-99505714D01*
X198033390Y-99505714D02*
X198081009Y-99458095D01*
X198081009Y-99458095D02*
X198176247Y-99410476D01*
X198176247Y-99410476D02*
X198414342Y-99410476D01*
X198414342Y-99410476D02*
X198509580Y-99458095D01*
X198509580Y-99458095D02*
X198557200Y-99505714D01*
X198557200Y-99505714D02*
X198604819Y-99600952D01*
X198604819Y-99600952D02*
X198604819Y-99886666D01*
X198604819Y-99886666D02*
X198557200Y-99981904D01*
X198557200Y-99981904D02*
X198509580Y-100029523D01*
X211321428Y-99764819D02*
X211511904Y-99764819D01*
X211511904Y-99764819D02*
X211607142Y-99812438D01*
X211607142Y-99812438D02*
X211702380Y-99907676D01*
X211702380Y-99907676D02*
X211749999Y-100098152D01*
X211749999Y-100098152D02*
X211749999Y-100431485D01*
X211749999Y-100431485D02*
X211702380Y-100621961D01*
X211702380Y-100621961D02*
X211607142Y-100717200D01*
X211607142Y-100717200D02*
X211511904Y-100764819D01*
X211511904Y-100764819D02*
X211321428Y-100764819D01*
X211321428Y-100764819D02*
X211226190Y-100717200D01*
X211226190Y-100717200D02*
X211130952Y-100621961D01*
X211130952Y-100621961D02*
X211083333Y-100431485D01*
X211083333Y-100431485D02*
X211083333Y-100098152D01*
X211083333Y-100098152D02*
X211130952Y-99907676D01*
X211130952Y-99907676D02*
X211226190Y-99812438D01*
X211226190Y-99812438D02*
X211321428Y-99764819D01*
X212654761Y-100764819D02*
X212178571Y-100764819D01*
X212178571Y-100764819D02*
X212178571Y-99764819D01*
X212988095Y-100241009D02*
X213321428Y-100241009D01*
X213464285Y-100764819D02*
X212988095Y-100764819D01*
X212988095Y-100764819D02*
X212988095Y-99764819D01*
X212988095Y-99764819D02*
X213464285Y-99764819D01*
X213892857Y-100764819D02*
X213892857Y-99764819D01*
X213892857Y-99764819D02*
X214130952Y-99764819D01*
X214130952Y-99764819D02*
X214273809Y-99812438D01*
X214273809Y-99812438D02*
X214369047Y-99907676D01*
X214369047Y-99907676D02*
X214416666Y-100002914D01*
X214416666Y-100002914D02*
X214464285Y-100193390D01*
X214464285Y-100193390D02*
X214464285Y-100336247D01*
X214464285Y-100336247D02*
X214416666Y-100526723D01*
X214416666Y-100526723D02*
X214369047Y-100621961D01*
X214369047Y-100621961D02*
X214273809Y-100717200D01*
X214273809Y-100717200D02*
X214130952Y-100764819D01*
X214130952Y-100764819D02*
X213892857Y-100764819D01*
X215654762Y-100764819D02*
X215654762Y-99764819D01*
X215654762Y-99764819D02*
X216035714Y-99764819D01*
X216035714Y-99764819D02*
X216130952Y-99812438D01*
X216130952Y-99812438D02*
X216178571Y-99860057D01*
X216178571Y-99860057D02*
X216226190Y-99955295D01*
X216226190Y-99955295D02*
X216226190Y-100098152D01*
X216226190Y-100098152D02*
X216178571Y-100193390D01*
X216178571Y-100193390D02*
X216130952Y-100241009D01*
X216130952Y-100241009D02*
X216035714Y-100288628D01*
X216035714Y-100288628D02*
X215654762Y-100288628D01*
X217083333Y-100764819D02*
X217083333Y-100241009D01*
X217083333Y-100241009D02*
X217035714Y-100145771D01*
X217035714Y-100145771D02*
X216940476Y-100098152D01*
X216940476Y-100098152D02*
X216750000Y-100098152D01*
X216750000Y-100098152D02*
X216654762Y-100145771D01*
X217083333Y-100717200D02*
X216988095Y-100764819D01*
X216988095Y-100764819D02*
X216750000Y-100764819D01*
X216750000Y-100764819D02*
X216654762Y-100717200D01*
X216654762Y-100717200D02*
X216607143Y-100621961D01*
X216607143Y-100621961D02*
X216607143Y-100526723D01*
X216607143Y-100526723D02*
X216654762Y-100431485D01*
X216654762Y-100431485D02*
X216750000Y-100383866D01*
X216750000Y-100383866D02*
X216988095Y-100383866D01*
X216988095Y-100383866D02*
X217083333Y-100336247D01*
X217559524Y-100098152D02*
X217559524Y-100764819D01*
X217559524Y-100193390D02*
X217607143Y-100145771D01*
X217607143Y-100145771D02*
X217702381Y-100098152D01*
X217702381Y-100098152D02*
X217845238Y-100098152D01*
X217845238Y-100098152D02*
X217940476Y-100145771D01*
X217940476Y-100145771D02*
X217988095Y-100241009D01*
X217988095Y-100241009D02*
X217988095Y-100764819D01*
X218845238Y-100717200D02*
X218750000Y-100764819D01*
X218750000Y-100764819D02*
X218559524Y-100764819D01*
X218559524Y-100764819D02*
X218464286Y-100717200D01*
X218464286Y-100717200D02*
X218416667Y-100621961D01*
X218416667Y-100621961D02*
X218416667Y-100241009D01*
X218416667Y-100241009D02*
X218464286Y-100145771D01*
X218464286Y-100145771D02*
X218559524Y-100098152D01*
X218559524Y-100098152D02*
X218750000Y-100098152D01*
X218750000Y-100098152D02*
X218845238Y-100145771D01*
X218845238Y-100145771D02*
X218892857Y-100241009D01*
X218892857Y-100241009D02*
X218892857Y-100336247D01*
X218892857Y-100336247D02*
X218416667Y-100431485D01*
X219464286Y-100764819D02*
X219369048Y-100717200D01*
X219369048Y-100717200D02*
X219321429Y-100621961D01*
X219321429Y-100621961D02*
X219321429Y-99764819D01*
X231053450Y-105030713D02*
X231089164Y-104923571D01*
X231089164Y-104923571D02*
X231089164Y-104744999D01*
X231089164Y-104744999D02*
X231053450Y-104673571D01*
X231053450Y-104673571D02*
X231017735Y-104637856D01*
X231017735Y-104637856D02*
X230946307Y-104602142D01*
X230946307Y-104602142D02*
X230874878Y-104602142D01*
X230874878Y-104602142D02*
X230803450Y-104637856D01*
X230803450Y-104637856D02*
X230767735Y-104673571D01*
X230767735Y-104673571D02*
X230732021Y-104744999D01*
X230732021Y-104744999D02*
X230696307Y-104887856D01*
X230696307Y-104887856D02*
X230660592Y-104959285D01*
X230660592Y-104959285D02*
X230624878Y-104994999D01*
X230624878Y-104994999D02*
X230553450Y-105030713D01*
X230553450Y-105030713D02*
X230482021Y-105030713D01*
X230482021Y-105030713D02*
X230410592Y-104994999D01*
X230410592Y-104994999D02*
X230374878Y-104959285D01*
X230374878Y-104959285D02*
X230339164Y-104887856D01*
X230339164Y-104887856D02*
X230339164Y-104709285D01*
X230339164Y-104709285D02*
X230374878Y-104602142D01*
X231089164Y-104280713D02*
X230339164Y-104280713D01*
X230339164Y-104280713D02*
X230339164Y-104102142D01*
X230339164Y-104102142D02*
X230374878Y-103994999D01*
X230374878Y-103994999D02*
X230446307Y-103923570D01*
X230446307Y-103923570D02*
X230517735Y-103887856D01*
X230517735Y-103887856D02*
X230660592Y-103852142D01*
X230660592Y-103852142D02*
X230767735Y-103852142D01*
X230767735Y-103852142D02*
X230910592Y-103887856D01*
X230910592Y-103887856D02*
X230982021Y-103923570D01*
X230982021Y-103923570D02*
X231053450Y-103994999D01*
X231053450Y-103994999D02*
X231089164Y-104102142D01*
X231089164Y-104102142D02*
X231089164Y-104280713D01*
X230874878Y-103566427D02*
X230874878Y-103209285D01*
X231089164Y-103637856D02*
X230339164Y-103387856D01*
X230339164Y-103387856D02*
X231089164Y-103137856D01*
X230374878Y-97071428D02*
X230339164Y-97142857D01*
X230339164Y-97142857D02*
X230339164Y-97249999D01*
X230339164Y-97249999D02*
X230374878Y-97357142D01*
X230374878Y-97357142D02*
X230446307Y-97428571D01*
X230446307Y-97428571D02*
X230517735Y-97464285D01*
X230517735Y-97464285D02*
X230660592Y-97499999D01*
X230660592Y-97499999D02*
X230767735Y-97499999D01*
X230767735Y-97499999D02*
X230910592Y-97464285D01*
X230910592Y-97464285D02*
X230982021Y-97428571D01*
X230982021Y-97428571D02*
X231053450Y-97357142D01*
X231053450Y-97357142D02*
X231089164Y-97249999D01*
X231089164Y-97249999D02*
X231089164Y-97178571D01*
X231089164Y-97178571D02*
X231053450Y-97071428D01*
X231053450Y-97071428D02*
X231017735Y-97035714D01*
X231017735Y-97035714D02*
X230767735Y-97035714D01*
X230767735Y-97035714D02*
X230767735Y-97178571D01*
X231089164Y-96714285D02*
X230339164Y-96714285D01*
X230339164Y-96714285D02*
X231089164Y-96285714D01*
X231089164Y-96285714D02*
X230339164Y-96285714D01*
X231089164Y-95928571D02*
X230339164Y-95928571D01*
X230339164Y-95928571D02*
X230339164Y-95750000D01*
X230339164Y-95750000D02*
X230374878Y-95642857D01*
X230374878Y-95642857D02*
X230446307Y-95571428D01*
X230446307Y-95571428D02*
X230517735Y-95535714D01*
X230517735Y-95535714D02*
X230660592Y-95500000D01*
X230660592Y-95500000D02*
X230767735Y-95500000D01*
X230767735Y-95500000D02*
X230910592Y-95535714D01*
X230910592Y-95535714D02*
X230982021Y-95571428D01*
X230982021Y-95571428D02*
X231053450Y-95642857D01*
X231053450Y-95642857D02*
X231089164Y-95750000D01*
X231089164Y-95750000D02*
X231089164Y-95928571D01*
X231053450Y-102472856D02*
X231089164Y-102365714D01*
X231089164Y-102365714D02*
X231089164Y-102187142D01*
X231089164Y-102187142D02*
X231053450Y-102115714D01*
X231053450Y-102115714D02*
X231017735Y-102079999D01*
X231017735Y-102079999D02*
X230946307Y-102044285D01*
X230946307Y-102044285D02*
X230874878Y-102044285D01*
X230874878Y-102044285D02*
X230803450Y-102079999D01*
X230803450Y-102079999D02*
X230767735Y-102115714D01*
X230767735Y-102115714D02*
X230732021Y-102187142D01*
X230732021Y-102187142D02*
X230696307Y-102329999D01*
X230696307Y-102329999D02*
X230660592Y-102401428D01*
X230660592Y-102401428D02*
X230624878Y-102437142D01*
X230624878Y-102437142D02*
X230553450Y-102472856D01*
X230553450Y-102472856D02*
X230482021Y-102472856D01*
X230482021Y-102472856D02*
X230410592Y-102437142D01*
X230410592Y-102437142D02*
X230374878Y-102401428D01*
X230374878Y-102401428D02*
X230339164Y-102329999D01*
X230339164Y-102329999D02*
X230339164Y-102151428D01*
X230339164Y-102151428D02*
X230374878Y-102044285D01*
X231017735Y-101294285D02*
X231053450Y-101329999D01*
X231053450Y-101329999D02*
X231089164Y-101437142D01*
X231089164Y-101437142D02*
X231089164Y-101508570D01*
X231089164Y-101508570D02*
X231053450Y-101615713D01*
X231053450Y-101615713D02*
X230982021Y-101687142D01*
X230982021Y-101687142D02*
X230910592Y-101722856D01*
X230910592Y-101722856D02*
X230767735Y-101758570D01*
X230767735Y-101758570D02*
X230660592Y-101758570D01*
X230660592Y-101758570D02*
X230517735Y-101722856D01*
X230517735Y-101722856D02*
X230446307Y-101687142D01*
X230446307Y-101687142D02*
X230374878Y-101615713D01*
X230374878Y-101615713D02*
X230339164Y-101508570D01*
X230339164Y-101508570D02*
X230339164Y-101437142D01*
X230339164Y-101437142D02*
X230374878Y-101329999D01*
X230374878Y-101329999D02*
X230410592Y-101294285D01*
X231089164Y-100615713D02*
X231089164Y-100972856D01*
X231089164Y-100972856D02*
X230339164Y-100972856D01*
X230339164Y-100039999D02*
X231089164Y-99789999D01*
X231089164Y-99789999D02*
X230339164Y-99539999D01*
X231017735Y-98861428D02*
X231053450Y-98897142D01*
X231053450Y-98897142D02*
X231089164Y-99004285D01*
X231089164Y-99004285D02*
X231089164Y-99075713D01*
X231089164Y-99075713D02*
X231053450Y-99182856D01*
X231053450Y-99182856D02*
X230982021Y-99254285D01*
X230982021Y-99254285D02*
X230910592Y-99289999D01*
X230910592Y-99289999D02*
X230767735Y-99325713D01*
X230767735Y-99325713D02*
X230660592Y-99325713D01*
X230660592Y-99325713D02*
X230517735Y-99289999D01*
X230517735Y-99289999D02*
X230446307Y-99254285D01*
X230446307Y-99254285D02*
X230374878Y-99182856D01*
X230374878Y-99182856D02*
X230339164Y-99075713D01*
X230339164Y-99075713D02*
X230339164Y-99004285D01*
X230339164Y-99004285D02*
X230374878Y-98897142D01*
X230374878Y-98897142D02*
X230410592Y-98861428D01*
X231017735Y-98111428D02*
X231053450Y-98147142D01*
X231053450Y-98147142D02*
X231089164Y-98254285D01*
X231089164Y-98254285D02*
X231089164Y-98325713D01*
X231089164Y-98325713D02*
X231053450Y-98432856D01*
X231053450Y-98432856D02*
X230982021Y-98504285D01*
X230982021Y-98504285D02*
X230910592Y-98539999D01*
X230910592Y-98539999D02*
X230767735Y-98575713D01*
X230767735Y-98575713D02*
X230660592Y-98575713D01*
X230660592Y-98575713D02*
X230517735Y-98539999D01*
X230517735Y-98539999D02*
X230446307Y-98504285D01*
X230446307Y-98504285D02*
X230374878Y-98432856D01*
X230374878Y-98432856D02*
X230339164Y-98325713D01*
X230339164Y-98325713D02*
X230339164Y-98254285D01*
X230339164Y-98254285D02*
X230374878Y-98147142D01*
X230374878Y-98147142D02*
X230410592Y-98111428D01*
X193666667Y-122657200D02*
X193809524Y-122704819D01*
X193809524Y-122704819D02*
X194047619Y-122704819D01*
X194047619Y-122704819D02*
X194142857Y-122657200D01*
X194142857Y-122657200D02*
X194190476Y-122609580D01*
X194190476Y-122609580D02*
X194238095Y-122514342D01*
X194238095Y-122514342D02*
X194238095Y-122419104D01*
X194238095Y-122419104D02*
X194190476Y-122323866D01*
X194190476Y-122323866D02*
X194142857Y-122276247D01*
X194142857Y-122276247D02*
X194047619Y-122228628D01*
X194047619Y-122228628D02*
X193857143Y-122181009D01*
X193857143Y-122181009D02*
X193761905Y-122133390D01*
X193761905Y-122133390D02*
X193714286Y-122085771D01*
X193714286Y-122085771D02*
X193666667Y-121990533D01*
X193666667Y-121990533D02*
X193666667Y-121895295D01*
X193666667Y-121895295D02*
X193714286Y-121800057D01*
X193714286Y-121800057D02*
X193761905Y-121752438D01*
X193761905Y-121752438D02*
X193857143Y-121704819D01*
X193857143Y-121704819D02*
X194095238Y-121704819D01*
X194095238Y-121704819D02*
X194238095Y-121752438D01*
X194571429Y-121704819D02*
X194809524Y-122704819D01*
X194809524Y-122704819D02*
X195000000Y-121990533D01*
X195000000Y-121990533D02*
X195190476Y-122704819D01*
X195190476Y-122704819D02*
X195428572Y-121704819D01*
X195761905Y-121800057D02*
X195809524Y-121752438D01*
X195809524Y-121752438D02*
X195904762Y-121704819D01*
X195904762Y-121704819D02*
X196142857Y-121704819D01*
X196142857Y-121704819D02*
X196238095Y-121752438D01*
X196238095Y-121752438D02*
X196285714Y-121800057D01*
X196285714Y-121800057D02*
X196333333Y-121895295D01*
X196333333Y-121895295D02*
X196333333Y-121990533D01*
X196333333Y-121990533D02*
X196285714Y-122133390D01*
X196285714Y-122133390D02*
X195714286Y-122704819D01*
X195714286Y-122704819D02*
X196333333Y-122704819D01*
D13*
X206652814Y-68189391D02*
X206652814Y-68822698D01*
X206652814Y-68822698D02*
X206690068Y-68897204D01*
X206690068Y-68897204D02*
X206727321Y-68934458D01*
X206727321Y-68934458D02*
X206801828Y-68971711D01*
X206801828Y-68971711D02*
X206950841Y-68971711D01*
X206950841Y-68971711D02*
X207025348Y-68934458D01*
X207025348Y-68934458D02*
X207062601Y-68897204D01*
X207062601Y-68897204D02*
X207099854Y-68822698D01*
X207099854Y-68822698D02*
X207099854Y-68189391D01*
X207435134Y-68263898D02*
X207472387Y-68226644D01*
X207472387Y-68226644D02*
X207546894Y-68189391D01*
X207546894Y-68189391D02*
X207733161Y-68189391D01*
X207733161Y-68189391D02*
X207807667Y-68226644D01*
X207807667Y-68226644D02*
X207844921Y-68263898D01*
X207844921Y-68263898D02*
X207882174Y-68338404D01*
X207882174Y-68338404D02*
X207882174Y-68412911D01*
X207882174Y-68412911D02*
X207844921Y-68524671D01*
X207844921Y-68524671D02*
X207397881Y-68971711D01*
X207397881Y-68971711D02*
X207882174Y-68971711D01*
D12*
X193666667Y-114107200D02*
X193809524Y-114154819D01*
X193809524Y-114154819D02*
X194047619Y-114154819D01*
X194047619Y-114154819D02*
X194142857Y-114107200D01*
X194142857Y-114107200D02*
X194190476Y-114059580D01*
X194190476Y-114059580D02*
X194238095Y-113964342D01*
X194238095Y-113964342D02*
X194238095Y-113869104D01*
X194238095Y-113869104D02*
X194190476Y-113773866D01*
X194190476Y-113773866D02*
X194142857Y-113726247D01*
X194142857Y-113726247D02*
X194047619Y-113678628D01*
X194047619Y-113678628D02*
X193857143Y-113631009D01*
X193857143Y-113631009D02*
X193761905Y-113583390D01*
X193761905Y-113583390D02*
X193714286Y-113535771D01*
X193714286Y-113535771D02*
X193666667Y-113440533D01*
X193666667Y-113440533D02*
X193666667Y-113345295D01*
X193666667Y-113345295D02*
X193714286Y-113250057D01*
X193714286Y-113250057D02*
X193761905Y-113202438D01*
X193761905Y-113202438D02*
X193857143Y-113154819D01*
X193857143Y-113154819D02*
X194095238Y-113154819D01*
X194095238Y-113154819D02*
X194238095Y-113202438D01*
X194571429Y-113154819D02*
X194809524Y-114154819D01*
X194809524Y-114154819D02*
X195000000Y-113440533D01*
X195000000Y-113440533D02*
X195190476Y-114154819D01*
X195190476Y-114154819D02*
X195428572Y-113154819D01*
X196333333Y-114154819D02*
X195761905Y-114154819D01*
X196047619Y-114154819D02*
X196047619Y-113154819D01*
X196047619Y-113154819D02*
X195952381Y-113297676D01*
X195952381Y-113297676D02*
X195857143Y-113392914D01*
X195857143Y-113392914D02*
X195761905Y-113440533D01*
%TO.C,U1*%
D11*
X210610000Y-125390000D02*
X220610000Y-125390000D01*
X220610000Y-112390000D01*
X210610000Y-112390000D01*
X210610000Y-125390000D01*
D14*
%TO.C,U3*%
X196250000Y-94310000D02*
X196250000Y-106310000D01*
X196250000Y-106310000D02*
X234250000Y-106310000D01*
X199750000Y-94310000D02*
X199750000Y-106310000D01*
X229250000Y-94310000D02*
X229250000Y-106310000D01*
X234250000Y-94310000D02*
X196250000Y-94310000D01*
X234250000Y-106310000D02*
X234250000Y-94310000D01*
D15*
%TO.C,SW2*%
X191500000Y-125750000D02*
X191500000Y-127250000D01*
X192750000Y-129750000D02*
X197250000Y-129750000D01*
X197250000Y-123250000D02*
X192750000Y-123250000D01*
X198500000Y-127250000D02*
X198500000Y-125750000D01*
D11*
%TO.C,U2*%
X206500000Y-89133000D02*
X206500000Y-71988000D01*
X208405000Y-91038000D02*
X222375000Y-91038000D01*
D16*
X210895000Y-70083000D02*
X210898728Y-69072728D01*
X211398728Y-68573000D02*
X219394000Y-68573000D01*
X219894000Y-69073000D02*
X219894000Y-70083000D01*
D11*
X222375000Y-70083000D02*
X208405000Y-70083000D01*
X224280000Y-89133000D02*
X224280000Y-71988000D01*
X206500000Y-71984000D02*
G75*
G02*
X208405000Y-70079000I1905001J-1D01*
G01*
X208405000Y-91038000D02*
G75*
G02*
X206500000Y-89133000I1J1905001D01*
G01*
D16*
X210898728Y-69072728D02*
G75*
G02*
X211398728Y-68573001I500018J-291D01*
G01*
X219394000Y-68573000D02*
G75*
G02*
X219893994Y-69073000I-6J-500000D01*
G01*
D11*
X222375000Y-70083000D02*
G75*
G02*
X224279994Y-71988000I-6J-1905000D01*
G01*
X224280000Y-89133000D02*
G75*
G02*
X222375000Y-91038006I-1905006J0D01*
G01*
D17*
X206542000Y-70499000D02*
G75*
G02*
X206038000Y-70499000I-252000J0D01*
G01*
X206038000Y-70499000D02*
G75*
G02*
X206542000Y-70499000I252000J0D01*
G01*
X207759000Y-71222000D02*
G75*
G02*
X207255000Y-71222000I-252000J0D01*
G01*
X207255000Y-71222000D02*
G75*
G02*
X207759000Y-71222000I252000J0D01*
G01*
D15*
%TO.C,SW1*%
X191500000Y-117200000D02*
X191500000Y-118700000D01*
X192750000Y-121200000D02*
X197250000Y-121200000D01*
X197250000Y-114700000D02*
X192750000Y-114700000D01*
X198500000Y-118700000D02*
X198500000Y-117200000D01*
%TD*%
M02*
