%TF.GenerationSoftware,KiCad,Pcbnew,9.0.6*%
%TF.CreationDate,2025-12-29T20:59:13-08:00*%
%TF.ProjectId,bodycam,626f6479-6361-46d2-9e6b-696361645f70,rev?*%
%TF.SameCoordinates,Original*%
%TF.FileFunction,Soldermask,Top*%
%TF.FilePolarity,Negative*%
%FSLAX46Y46*%
G04 Gerber Fmt 4.6, Leading zero omitted, Abs format (unit mm)*
G04 Created by KiCad (PCBNEW 9.0.6) date 2025-12-29 20:59:13*
%MOMM*%
%LPD*%
G01*
G04 APERTURE LIST*
G04 Aperture macros list*
%AMRoundRect*
0 Rectangle with rounded corners*
0 $1 Rounding radius*
0 $2 $3 $4 $5 $6 $7 $8 $9 X,Y pos of 4 corners*
0 Add a 4 corners polygon primitive as box body*
4,1,4,$2,$3,$4,$5,$6,$7,$8,$9,$2,$3,0*
0 Add four circle primitives for the rounded corners*
1,1,$1+$1,$2,$3*
1,1,$1+$1,$4,$5*
1,1,$1+$1,$6,$7*
1,1,$1+$1,$8,$9*
0 Add four rect primitives between the rounded corners*
20,1,$1+$1,$2,$3,$4,$5,0*
20,1,$1+$1,$4,$5,$6,$7,0*
20,1,$1+$1,$6,$7,$8,$9,0*
20,1,$1+$1,$8,$9,$2,$3,0*%
G04 Aperture macros list end*
%ADD10C,1.500000*%
%ADD11R,1.700000X1.700000*%
%ADD12O,1.700000X1.700000*%
%ADD13C,2.000000*%
%ADD14RoundRect,0.525400X-0.900400X-0.525400X0.900400X-0.525400X0.900400X0.525400X-0.900400X0.525400X0*%
%ADD15RoundRect,0.300400X1.000400X0.300400X-1.000400X0.300400X-1.000400X-0.300400X1.000400X-0.300400X0*%
%ADD16C,1.700000*%
G04 APERTURE END LIST*
D10*
%TO.C,U1*%
X219500000Y-113500000D03*
X216960000Y-113500000D03*
X214420000Y-113500000D03*
X211880000Y-113500000D03*
%TD*%
D11*
%TO.C,U3*%
X232750000Y-96500000D03*
D12*
X232750000Y-99040000D03*
X232750000Y-101580000D03*
X232750000Y-104120000D03*
%TD*%
D13*
%TO.C,SW2*%
X191750000Y-124250000D03*
X198250000Y-124250000D03*
X191750000Y-128750000D03*
X198250000Y-128750000D03*
%TD*%
D14*
%TO.C,U2*%
X207335000Y-73000000D03*
X207335000Y-75540000D03*
X207335000Y-78080000D03*
X207335000Y-80620000D03*
X207335000Y-83160000D03*
X207335000Y-85700000D03*
X207335000Y-88240000D03*
X223500000Y-88240000D03*
X223500000Y-85700000D03*
X223500000Y-83160000D03*
X223500000Y-80620000D03*
X223500000Y-78080000D03*
X223500000Y-75540000D03*
X223500000Y-73000000D03*
D15*
X210945000Y-80238000D03*
X210945000Y-78333000D03*
D16*
X214120000Y-71988000D03*
X216660000Y-71988000D03*
X214120000Y-74528000D03*
X216660000Y-74528000D03*
X214120000Y-77068000D03*
X216660000Y-77068000D03*
X214120000Y-79608000D03*
X216660000Y-79608000D03*
%TD*%
D13*
%TO.C,SW1*%
X191750000Y-115700000D03*
X198250000Y-115700000D03*
X191750000Y-120200000D03*
X198250000Y-120200000D03*
%TD*%
M02*
