%TF.GenerationSoftware,KiCad,Pcbnew,9.0.6*%
%TF.CreationDate,2025-12-29T20:59:13-08:00*%
%TF.ProjectId,bodycam,626f6479-6361-46d2-9e6b-696361645f70,rev?*%
%TF.SameCoordinates,Original*%
%TF.FileFunction,Copper,L1,Top*%
%TF.FilePolarity,Positive*%
%FSLAX46Y46*%
G04 Gerber Fmt 4.6, Leading zero omitted, Abs format (unit mm)*
G04 Created by KiCad (PCBNEW 9.0.6) date 2025-12-29 20:59:13*
%MOMM*%
%LPD*%
G01*
G04 APERTURE LIST*
G04 Aperture macros list*
%AMRoundRect*
0 Rectangle with rounded corners*
0 $1 Rounding radius*
0 $2 $3 $4 $5 $6 $7 $8 $9 X,Y pos of 4 corners*
0 Add a 4 corners polygon primitive as box body*
4,1,4,$2,$3,$4,$5,$6,$7,$8,$9,$2,$3,0*
0 Add four circle primitives for the rounded corners*
1,1,$1+$1,$2,$3*
1,1,$1+$1,$4,$5*
1,1,$1+$1,$6,$7*
1,1,$1+$1,$8,$9*
0 Add four rect primitives between the rounded corners*
20,1,$1+$1,$2,$3,$4,$5,0*
20,1,$1+$1,$4,$5,$6,$7,0*
20,1,$1+$1,$6,$7,$8,$9,0*
20,1,$1+$1,$8,$9,$2,$3,0*%
G04 Aperture macros list end*
%TA.AperFunction,ComponentPad*%
%ADD10C,1.500000*%
%TD*%
%TA.AperFunction,ComponentPad*%
%ADD11R,1.700000X1.700000*%
%TD*%
%TA.AperFunction,ComponentPad*%
%ADD12O,1.700000X1.700000*%
%TD*%
%TA.AperFunction,ComponentPad*%
%ADD13C,2.000000*%
%TD*%
%TA.AperFunction,SMDPad,CuDef*%
%ADD14RoundRect,0.500000X-0.875000X-0.500000X0.875000X-0.500000X0.875000X0.500000X-0.875000X0.500000X0*%
%TD*%
%TA.AperFunction,ComponentPad*%
%ADD15RoundRect,0.275000X0.975000X0.275000X-0.975000X0.275000X-0.975000X-0.275000X0.975000X-0.275000X0*%
%TD*%
%TA.AperFunction,SMDPad,CuDef*%
%ADD16C,1.700000*%
%TD*%
%TA.AperFunction,Conductor*%
%ADD17C,0.200000*%
%TD*%
G04 APERTURE END LIST*
D10*
%TO.P,U1,1,GND*%
%TO.N,Net-(U3-GND)*%
X219500000Y-113500000D03*
%TO.P,U1,2,GND*%
X216960000Y-113500000D03*
%TO.P,U1,3,3.7V*%
%TO.N,Net-(U2-BAT)*%
X214420000Y-113500000D03*
%TO.P,U1,4,3.7V*%
X211880000Y-113500000D03*
%TD*%
D11*
%TO.P,U3,1,GND*%
%TO.N,Net-(U3-GND)*%
X232750000Y-96500000D03*
D12*
%TO.P,U3,2,VCC*%
%TO.N,Net-(U2-3V3)*%
X232750000Y-99040000D03*
%TO.P,U3,3,SCL*%
%TO.N,Net-(U2-GPIO6_A5_D5_SCL)*%
X232750000Y-101580000D03*
%TO.P,U3,4,SDA*%
%TO.N,Net-(U2-GPIO5_A4_D4_SDA)*%
X232750000Y-104120000D03*
%TD*%
D13*
%TO.P,SW2,1,1*%
%TO.N,Net-(U2-GPIO1_A0_D0)*%
X191750000Y-124250000D03*
X198250000Y-124250000D03*
%TO.P,SW2,2,2*%
%TO.N,Net-(U3-GND)*%
X191750000Y-128750000D03*
X198250000Y-128750000D03*
%TD*%
D14*
%TO.P,U2,1,GPIO1_A0_D0*%
%TO.N,Net-(U2-GPIO1_A0_D0)*%
X207335000Y-73000000D03*
%TO.P,U2,2,GPIO2_A1_D1*%
%TO.N,Net-(U2-GPIO2_A1_D1)*%
X207335000Y-75540000D03*
%TO.P,U2,3,GPIO3_A2_D2*%
%TO.N,unconnected-(U2-GPIO3_A2_D2-Pad3)*%
X207335000Y-78080000D03*
%TO.P,U2,4,GPIO4_A3_D3*%
%TO.N,unconnected-(U2-GPIO4_A3_D3-Pad4)*%
X207335000Y-80620000D03*
%TO.P,U2,5,GPIO5_A4_D4_SDA*%
%TO.N,Net-(U2-GPIO5_A4_D4_SDA)*%
X207335000Y-83160000D03*
%TO.P,U2,6,GPIO6_A5_D5_SCL*%
%TO.N,Net-(U2-GPIO6_A5_D5_SCL)*%
X207335000Y-85700000D03*
%TO.P,U2,7,GPIO43_A6_D6_TX*%
%TO.N,unconnected-(U2-GPIO43_A6_D6_TX-Pad7)*%
X207335000Y-88240000D03*
%TO.P,U2,8,GPIO44_D7_RX*%
%TO.N,unconnected-(U2-GPIO44_D7_RX-Pad8)*%
X223500000Y-88240000D03*
%TO.P,U2,9,GPIO7_A8_D8_SCK*%
%TO.N,unconnected-(U2-GPIO7_A8_D8_SCK-Pad9)*%
X223500000Y-85700000D03*
%TO.P,U2,10,GPIO8_A9_D9_MISO*%
%TO.N,unconnected-(U2-GPIO8_A9_D9_MISO-Pad10)*%
X223500000Y-83160000D03*
%TO.P,U2,11,GPIO9_A10_D10_MOSI*%
%TO.N,unconnected-(U2-GPIO9_A10_D10_MOSI-Pad11)*%
X223500000Y-80620000D03*
%TO.P,U2,12,3V3*%
%TO.N,Net-(U2-3V3)*%
X223500000Y-78080000D03*
%TO.P,U2,13,GND*%
%TO.N,unconnected-(U2-GND-Pad13)*%
X223500000Y-75540000D03*
%TO.P,U2,14,5V*%
%TO.N,unconnected-(U2-5V-Pad14)*%
X223500000Y-73000000D03*
D15*
%TO.P,U2,15,BAT*%
%TO.N,Net-(U2-BAT)*%
X210945000Y-80238000D03*
%TO.P,U2,16,GND*%
%TO.N,Net-(U3-GND)*%
X210945000Y-78333000D03*
D16*
%TO.P,U2,17,MTDI*%
%TO.N,unconnected-(U2-MTDI-Pad17)*%
X214120000Y-71988000D03*
%TO.P,U2,18,MTDO*%
%TO.N,unconnected-(U2-MTDO-Pad18)*%
X216660000Y-71988000D03*
%TO.P,U2,19,CHIP_EN*%
%TO.N,unconnected-(U2-CHIP_EN-Pad19)*%
X214120000Y-74528000D03*
%TO.P,U2,20,GND*%
%TO.N,unconnected-(U2-GND-Pad20)*%
X216660000Y-74528000D03*
%TO.P,U2,21,MTMS*%
%TO.N,unconnected-(U2-MTMS-Pad21)*%
X214120000Y-77068000D03*
%TO.P,U2,22,MTCK*%
%TO.N,unconnected-(U2-MTCK-Pad22)*%
X216660000Y-77068000D03*
%TO.P,U2,23,USB_DN*%
%TO.N,unconnected-(U2-USB_DN-Pad23)*%
X214120000Y-79608000D03*
%TO.P,U2,24,USB_DP*%
%TO.N,unconnected-(U2-USB_DP-Pad24)*%
X216660000Y-79608000D03*
%TD*%
D13*
%TO.P,SW1,1,1*%
%TO.N,Net-(U2-GPIO2_A1_D1)*%
X191750000Y-115700000D03*
X198250000Y-115700000D03*
%TO.P,SW1,2,2*%
%TO.N,Net-(U3-GND)*%
X191750000Y-120200000D03*
X198250000Y-120200000D03*
%TD*%
D17*
%TO.N,Net-(U3-GND)*%
X219500000Y-113500000D02*
X219500000Y-106500000D01*
X209500000Y-85000000D02*
X209394000Y-84894000D01*
X221500000Y-72000000D02*
X221500000Y-90000000D01*
X212000000Y-90500000D02*
X211500000Y-90000000D01*
X221500000Y-90000000D02*
X221000000Y-90500000D01*
X204300000Y-120200000D02*
X205000000Y-119500000D01*
X233000000Y-96500000D02*
X232750000Y-96500000D01*
X219500000Y-106500000D02*
X220000000Y-106000000D01*
X216960000Y-106540000D02*
X217500000Y-106000000D01*
X217500000Y-106000000D02*
X220000000Y-106000000D01*
X209394000Y-84894000D02*
X209394000Y-78634000D01*
X210067100Y-85000000D02*
X209500000Y-85000000D01*
X232750000Y-96500000D02*
X228000000Y-96500000D01*
X209695000Y-78333000D02*
X210945000Y-78333000D01*
X227500000Y-72000000D02*
X227000000Y-71500000D01*
X205500000Y-106000000D02*
X217500000Y-106000000D01*
X221000000Y-90500000D02*
X212000000Y-90500000D01*
X198250000Y-128750000D02*
X204250000Y-128750000D01*
X227500000Y-96000000D02*
X227500000Y-72000000D01*
X220000000Y-106000000D02*
X233500000Y-106000000D01*
X234500000Y-105000000D02*
X234500000Y-98000000D01*
X204250000Y-128750000D02*
X205000000Y-128000000D01*
X205000000Y-128000000D02*
X205000000Y-119500000D01*
X234500000Y-98000000D02*
X233000000Y-96500000D01*
X211500000Y-86432900D02*
X210067100Y-85000000D01*
X205000000Y-119500000D02*
X205000000Y-106500000D01*
X233500000Y-106000000D02*
X234500000Y-105000000D01*
X216960000Y-113500000D02*
X216960000Y-106540000D01*
X209394000Y-78634000D02*
X209695000Y-78333000D01*
X211500000Y-90000000D02*
X211500000Y-86432900D01*
X191750000Y-128750000D02*
X198250000Y-128750000D01*
X205000000Y-106500000D02*
X205500000Y-106000000D01*
X222000000Y-71500000D02*
X221500000Y-72000000D01*
X227000000Y-71500000D02*
X222000000Y-71500000D01*
X228000000Y-96500000D02*
X227500000Y-96000000D01*
X198250000Y-120200000D02*
X204300000Y-120200000D01*
%TO.N,Net-(U2-GPIO6_A5_D5_SCL)*%
X226500000Y-101000000D02*
X226500000Y-92500000D01*
X211500000Y-92000000D02*
X211000000Y-91500000D01*
X210200000Y-85700000D02*
X207335000Y-85700000D01*
X227080000Y-101580000D02*
X226500000Y-101000000D01*
X226000000Y-92000000D02*
X211500000Y-92000000D01*
X232750000Y-101580000D02*
X227080000Y-101580000D01*
X211000000Y-91500000D02*
X211000000Y-86500000D01*
X211000000Y-86500000D02*
X210200000Y-85700000D01*
X226500000Y-92500000D02*
X226000000Y-92000000D01*
%TO.N,Net-(U2-GPIO2_A1_D1)*%
X209000000Y-71000000D02*
X209500000Y-71500000D01*
X191750000Y-115700000D02*
X191750000Y-71750000D01*
X192500000Y-71000000D02*
X209000000Y-71000000D01*
X208460000Y-75540000D02*
X207335000Y-75540000D01*
X209500000Y-74500000D02*
X208460000Y-75540000D01*
X191750000Y-71750000D02*
X192500000Y-71000000D01*
X209500000Y-71500000D02*
X209500000Y-74500000D01*
%TO.N,Net-(U2-BAT)*%
X235000000Y-114000000D02*
X235000000Y-71500000D01*
X221932900Y-71000000D02*
X221000000Y-71932900D01*
X215920000Y-115000000D02*
X234000000Y-115000000D01*
X212000000Y-81293000D02*
X210945000Y-80238000D01*
X211880000Y-113500000D02*
X213380000Y-115000000D01*
X212500000Y-90000000D02*
X212000000Y-89500000D01*
X220500000Y-90000000D02*
X212500000Y-90000000D01*
X212000000Y-89500000D02*
X212000000Y-81293000D01*
X234000000Y-115000000D02*
X235000000Y-114000000D01*
X221000000Y-71932900D02*
X221000000Y-89500000D01*
X234500000Y-71000000D02*
X221932900Y-71000000D01*
X235000000Y-71500000D02*
X234500000Y-71000000D01*
X221000000Y-89500000D02*
X220500000Y-90000000D01*
X214420000Y-113500000D02*
X215920000Y-115000000D01*
X213380000Y-115000000D02*
X215920000Y-115000000D01*
%TO.N,Net-(U2-3V3)*%
X227000000Y-81580000D02*
X223500000Y-78080000D01*
X232750000Y-99040000D02*
X227540000Y-99040000D01*
X227540000Y-99040000D02*
X227000000Y-98500000D01*
X227000000Y-98500000D02*
X227000000Y-81580000D01*
%TO.N,Net-(U2-GPIO5_A4_D4_SDA)*%
X226620000Y-104120000D02*
X226000000Y-103500000D01*
X226000000Y-93000000D02*
X225500000Y-92500000D01*
X225500000Y-92500000D02*
X205500000Y-92500000D01*
X226000000Y-103500000D02*
X226000000Y-93000000D01*
X232750000Y-104120000D02*
X226620000Y-104120000D01*
X205500000Y-92500000D02*
X205000000Y-92000000D01*
X205840000Y-83160000D02*
X207335000Y-83160000D01*
X205000000Y-92000000D02*
X205000000Y-84000000D01*
X205000000Y-84000000D02*
X205840000Y-83160000D01*
%TO.N,Net-(U2-GPIO1_A0_D0)*%
X207335000Y-73000000D02*
X193500000Y-73000000D01*
X193000000Y-73500000D02*
X193000000Y-111000000D01*
X193000000Y-121500000D02*
X193000000Y-123000000D01*
X194000000Y-120500000D02*
X193000000Y-121500000D01*
X194500000Y-120500000D02*
X194000000Y-120500000D01*
X198250000Y-124250000D02*
X194500000Y-120500000D01*
X193000000Y-123000000D02*
X191750000Y-124250000D01*
X193000000Y-111000000D02*
X194000000Y-112000000D01*
X194000000Y-112000000D02*
X194000000Y-120500000D01*
X193500000Y-73000000D02*
X193000000Y-73500000D01*
%TD*%
M02*
